<svg xmlns="http://www.w3.org/2000/svg" width="16px" height="16px" viewBox="0 0 16 16" version="1.1">
    <g id="Artboard" stroke="none" stroke-width="1" fill="none" fill-rule="evenodd">
        <circle id="Circle" fill="#FFFFFF" cx="8" cy="8" r="8"/>
        <path d="M3.17026167,7.83635602 C5.78750201,6.74265999 7.53273885,6.02162463 8.40597511,5.67326193 C10.8932306,4.67823423 11.2454541,4.55239191 11.5831749,4.52864956 C11.6573236,4.52743168 11.8385417,4.55776042 11.9798438,4.63245833 C12.1202458,4.79515625 12.1635786,4.87206678 12.1755371,4.93908691 C12.1874957,5.05210705 12.1862759,5.21456762 12.1744385,5.3338623 C12.0393279,6.69547283 11.5259342,9.83825171 11.2285121,11.3633248 C11.1026617,12.008621 10.8548582,12.2249854 10.6149558,12.2461596 C10.5315924,12.2921758 9.69769267,11.9156852 9.192725128,11.5981943 C8.40255452,11.1013365 8.13911734,10.9180161 7.3721185,10.4332283 C6.48571864,9.87297217 6.85080034,9.6784879 7.35595703,9.17524981 C7.48815894,9.04355001 9.67825076,7.04590073 9.71077046,6.86250183 C9.7391276,6.70257812 9.7494847,6.68189389 9.67664063,6.60973958 C9.60379655,6.53758527 9.51674192,6.54658941 9.46083149,6.55876051 C9.38158015,6.57601267 8.17521836,7.33962686 5.84174612,8.84960308 C5.48344358,9.08558775 5.15890428,9.20056741 4.86812819,9.19454205 C4.54757089,9.18789957 3.93594724,9.02070014 3.47255094,8.87178221 C2.91030922,8.70248755 2.46345069,8.609808 2.50536203,8.31210343 C2.52262946,8.15705147 2.74526267,7.998458 3.17026167,7.83635602 Z" id="Plane" fill="#279AD1"/>
    </g>
    <svg x="8" y="8" width="8" height="8" viewBox="40 -980 960 960">
        <path d="m640-280-57-56 184-184-184-184 57-56 240 240-240 240ZM80-200v-160q0-83 58.5-141.5T280-560h247L383-704l57-56 240 240-240 240-57-56 144-144H280q-50 0-85 35t-35 85v160H80Z" id="forward" fill="#AAAAAA"/>
    </svg>
</svg>